<svg width="1440" height="437" viewBox="0 0 1440 437" fill="none" xmlns="http://www.w3.org/2000/svg">
<path d="M207.878 437C91.5759 437 11.3637 381.831 -35.5093 335.572C-86.2334 285.409 -109.78 234.545 -110 234.044L-108.019 233.344C-107.799 233.844 -84.2529 284.308 -33.8589 334.271C12.7941 380.228 92.4561 434.997 207.878 434.997C264.654 434.997 313.397 416.074 361.151 375.523C403.402 339.577 439.602 290.515 474.702 243.056C548.533 143.23 624.894 40 764.523 40C870.042 40 921.866 114.394 972.04 186.284C1015.28 248.463 1060.06 312.743 1139.4 328.063C1213.89 342.481 1311.81 312.143 1438.79 235.246L1440 236.848C1333.05 301.73 1246.46 333.57 1177.03 333.57C1163.68 333.57 1150.95 332.402 1138.85 330.065C1058.74 314.546 1013.74 249.964 970.17 187.386C920.326 115.896 868.832 42.0025 764.523 42.0025C626.104 42.0025 550.073 144.732 476.573 244.157C441.363 291.717 405.053 340.879 362.691 376.924C315.158 417.375 264.434 437 207.878 437Z" fill="url(#paint0_linear_7523_5819)" fill-opacity="0.2"/>
<path d="M207.878 437C91.5759 437 11.3637 381.831 -35.5093 335.572C-86.2334 285.409 -109.78 234.545 -110 234.044L-108.019 233.344C-107.799 233.844 -84.2529 284.308 -33.8589 334.271C12.7941 380.228 92.4561 434.997 207.878 434.997C264.654 434.997 313.397 416.074 361.151 375.523C403.402 339.577 439.602 290.515 474.702 243.056C548.533 143.23 624.894 40 764.523 40C870.042 40 921.866 114.394 972.04 186.284C1015.28 248.463 1060.06 312.743 1139.4 328.063C1213.89 342.481 1311.81 312.143 1438.79 235.246L1440 236.848C1333.05 301.73 1246.46 333.57 1177.03 333.57C1163.68 333.57 1150.95 332.402 1138.85 330.065C1058.74 314.546 1013.74 249.964 970.17 187.386C920.326 115.896 868.832 42.0025 764.523 42.0025C626.104 42.0025 550.073 144.732 476.573 244.157C441.363 291.717 405.053 340.879 362.691 376.924C315.158 417.375 264.434 437 207.878 437Z" fill="url(#paint1_linear_7523_5819)" fill-opacity="0.2"/>
<path d="M-148.784 0C-299.602 0 -403.619 38.4936 -464.402 70.7695C-530.18 105.77 -560.715 141.26 -561 141.609L-558.432 142.098C-558.146 141.749 -527.612 106.538 -462.262 71.6777C-401.764 39.6113 -298.46 1.39722 -148.784 1.39722C-75.1585 1.39722 -11.9492 14.601 49.976 42.8948C104.767 67.975 151.71 102.207 197.227 135.321C292.968 204.973 391.991 277 573.058 277C709.893 277 777.097 225.093 842.162 174.933C898.237 131.549 956.309 86.6978 1059.19 76.0091C1155.78 65.9491 1282.77 87.117 1447.43 140.77L1449 139.653C1310.31 94.3826 1198.02 72.1667 1107.98 72.1667C1090.67 72.1667 1074.17 72.9818 1058.47 74.6118C954.597 85.4403 896.239 130.501 839.736 174.164C775.1 224.045 708.323 275.603 573.058 275.603C393.561 275.603 294.966 203.925 199.652 134.553C153.993 101.369 106.907 67.0668 51.9736 41.9168C-9.6662 13.6928 -75.4438 0 -148.784 0Z" fill="url(#paint2_linear_7523_5819)" fill-opacity="0.2"/>
<path d="M-148.784 0C-299.602 0 -403.619 38.4936 -464.402 70.7695C-530.18 105.77 -560.715 141.26 -561 141.609L-558.432 142.098C-558.146 141.749 -527.612 106.538 -462.262 71.6777C-401.764 39.6113 -298.46 1.39722 -148.784 1.39722C-75.1585 1.39722 -11.9492 14.601 49.976 42.8948C104.767 67.975 151.71 102.207 197.227 135.321C292.968 204.973 391.991 277 573.058 277C709.893 277 777.097 225.093 842.162 174.933C898.237 131.549 956.309 86.6978 1059.19 76.0091C1155.78 65.9491 1282.77 87.117 1447.43 140.77L1449 139.653C1310.31 94.3826 1198.02 72.1667 1107.98 72.1667C1090.67 72.1667 1074.17 72.9818 1058.47 74.6118C954.597 85.4403 896.239 130.501 839.736 174.164C775.1 224.045 708.323 275.603 573.058 275.603C393.561 275.603 294.966 203.925 199.652 134.553C153.993 101.369 106.907 67.0668 51.9736 41.9168C-9.6662 13.6928 -75.4438 0 -148.784 0Z" fill="url(#paint3_linear_7523_5819)" fill-opacity="0.2"/>
<defs>
<linearGradient id="paint0_linear_7523_5819" x1="-37.6926" y1="376.215" x2="1346.33" y2="362.33" gradientUnits="userSpaceOnUse">
<stop stop-color="#5F42E2"/>
<stop offset="1" stop-color="#8842CA"/>
</linearGradient>
<linearGradient id="paint1_linear_7523_5819" x1="-11.4872" y1="378.115" x2="664.765" y2="439.587" gradientUnits="userSpaceOnUse">
<stop/>
<stop offset="1" stop-opacity="0"/>
</linearGradient>
<linearGradient id="paint2_linear_7523_5819" x1="-467.234" y1="42.4116" x2="1327.09" y2="75.8692" gradientUnits="userSpaceOnUse">
<stop stop-color="#5F42E2"/>
<stop offset="1" stop-color="#8842CA"/>
</linearGradient>
<linearGradient id="paint3_linear_7523_5819" x1="-433.251" y1="41.0861" x2="426.405" y2="-104.149" gradientUnits="userSpaceOnUse">
<stop/>
<stop offset="1" stop-opacity="0"/>
</linearGradient>
</defs>
</svg>
